Coordinates
version=1
nRows=14
nColumns=24
inDegrees=yes

Units are S.I. units (second, meters, Newtons, ...)
Angles are in degrees.

endheader
time	pelvis_tilt	pelvis_list	pelvis_rotation	pelvis_tx	pelvis_ty	pelvis_tz	hip_flexion_r	hip_adduction_r	hip_rotation_r	knee_angle_r	ankle_angle_r	subtalar_angle_r	mtp_angle_r	hip_flexion_l	hip_adduction_l	hip_rotation_l	knee_angle_l	ankle_angle_l	subtalar_angle_l	mtp_angle_l	lumbar_extension	lumbar_bending	lumbar_rotation
      3.81500000	      6.18924687	      6.77239038	     -1.59065730	      0.23985220	      0.99585560	     -0.01333559	      6.07645521	     -6.09728533	    -12.64777245	    -14.71243677	      2.48612639	     -2.16973985	      2.06644637	     10.13309520	      6.42756001	     -4.81076517	    -58.39725909	      2.70568397	      4.79069567	     49.30198368	    -19.43553827	     -7.51780886	      4.68459009
      3.82000000	      6.22625430	      6.76697761	     -1.64566205	      0.24435744	      0.99635711	     -0.01298220	      5.66257968	     -6.04908907	    -12.62849399	    -14.54856701	      2.69243020	     -2.10970652	      1.78580319	     10.66498574	      6.33241013	     -5.00207591	    -58.30302831	      3.25900053	      4.88292121	     48.00693690	    -19.51282949	     -7.57221531	      4.74583328
      3.82500000	      6.21992063	      6.78317507	     -1.67320316	      0.24882331	      0.99678379	     -0.01266170	      5.30192799	     -6.02151445	    -12.58634873	    -14.39444650	      2.84659229	     -2.14345779	      1.78772875	     11.23412073	      6.26246158	     -5.18092056	    -58.13245147	      3.65638368	      4.78189175	     47.97320638	    -19.55104416	     -7.64323615	      4.73479647
      3.83000000	      6.02857383	      6.79343107	     -1.74372479	      0.25313225	      0.99686334	     -0.01224105	      5.21025541	     -5.96848044	    -12.38398234	    -14.32734230	      3.02283336	     -2.33689470	      1.53243283	     12.02489365	      6.15210624	     -5.43540379	    -57.97418054	      4.13497155	      4.85752511	     46.85512680	    -19.38875991	     -7.72978654	      4.80456382
      3.83500000	      6.03877074	      6.82092657	     -1.77650661	      0.25759651	      0.99728790	     -0.01195811	      4.83573467	     -5.96124472	    -12.36114248	    -14.17817985	      3.15564764	     -2.33949581	      1.53063014	     12.53173067	      6.08965012	     -5.63307678	    -57.66655861	      4.52331961	      4.80716048	     46.80683034	    -19.44594076	     -7.81336855	      4.82997645
      3.84000000	      5.98212963	      6.84297022	     -1.85982003	      0.26199258	      0.99758228	     -0.01155019	      4.57114093	     -5.92988809	    -12.19113551	    -14.07164889	      3.33928578	     -2.46161697	      1.19044589	     13.10084500	      5.99396468	     -5.89514452	    -57.32791600	      5.00214429	      4.94422406	     45.36364013	    -19.42648750	     -7.91620468	      4.93665513
      3.84500000	      5.95994175	      6.89077063	     -1.86496018	      0.26643132	      0.99792686	     -0.01132805	      4.24047449	     -5.94991259	    -12.17635084	    -13.94541291	      3.48903562	     -2.47248427	      1.19580304	     13.60524106	      5.95976775	     -6.07126729	    -56.89456227	      5.33135351	      4.90485351	     45.34250311	    -19.45528392	     -8.01563156	      4.92428594
      3.85000000	      5.93479804	      6.95562660	     -1.89427893	      0.27087304	      0.99826816	     -0.01110260	      3.93200705	     -5.99004736	    -12.11609587	    -13.84851924	      3.65656969	     -2.50117857	      1.18838996	     14.08061539	      5.94113412	     -6.27712754	    -56.37688530	      5.64828234	      4.88485636	     45.26205465	    -19.47768359	     -8.13657073	      4.92762589
      3.85500000	      5.85937739	      7.01506779	     -1.98784781	      0.27521002	      0.99846282	     -0.01078464	      3.72247149	     -6.01551831	    -11.92413935	    -13.80001439	      3.91845138	     -2.56753265	      0.78406205	     14.61227046	      5.89160448	     -6.56011598	    -55.85153079	      6.04450057	      5.01860976	     43.81704505	    -19.44359063	     -8.27745813	      5.05399149
      3.86000000	      5.82202313	      7.09429758	     -1.96877288	      0.27963945	      0.99874760	     -0.01066211	      3.42074930	     -6.07975701	    -11.92938824	    -13.70166267	      4.04814309	     -2.59947845	      0.77974215	     15.06415414	      5.90963083	     -6.71160353	    -55.22105736	      6.31202367	      5.02000814	     43.78858696	    -19.46148281	     -8.40109118	      5.02480222
      3.86500000	      5.81458291	      7.20844583	     -2.01601717	      0.28406225	      0.99905222	     -0.01044386	      3.11700195	     -6.18142244	    -11.85618351	    -13.64134782	      4.27502596	     -2.60320999	      0.73983434	     15.45222096	      5.94365999	     -6.94983641	    -54.50638841	      6.49657046	      5.06532074	     43.61387487	    -19.50659570	     -8.58448336	      5.02635653
      3.87000000	      5.80103094	      7.30591679	     -2.03779222	      0.28848202	      0.99931603	     -0.01029998	      2.81671876	     -6.26963930	    -11.80396314	    -13.58309339	      4.48712187	     -2.61604434	      0.65238782	     15.82939104	      5.97791030	     -7.14890945	    -53.74983157	      6.71549629	      5.10018851	     43.33278783	    -19.54773355	     -8.73905193	      5.03624280
      3.87500000	      5.80886972	      7.38010714	     -2.05802058	      0.29291100	      0.99959504	     -0.01023341	      2.48883574	     -6.34377146	    -11.79995602	    -13.52233924	      4.72156696	     -2.54669947	      0.25512742	     16.16059865	      6.00599196	     -7.32497646	    -52.94985380	      7.00750956	      5.16831633	     42.37052225	    -19.60985827	     -8.86327950	      5.13120533
      3.88000000	      5.75066187	      7.45727060	     -2.00593025	      0.29730505	      0.99974308	     -0.01019396	      2.22807226	     -6.40808422	    -11.78459458	    -13.46892544	      4.91419667	     -2.63391164	      0.20826736	     16.56016021	      6.04573452	     -7.43862832	    -52.11260636	      7.14854095	      5.24147645	     42.26870133	    -19.61705925	     -8.97374989	      5.04157379
